<svg width="64" height="82" viewBox="0 0 64 82" fill="none" xmlns="http://www.w3.org/2000/svg">
<path d="M5.76991 13.84C6.92991 13.84 7.93991 13.03 8.18991 11.9C9.07991 7.94 12.6199 4.97 16.8399 4.97C21.0599 4.97 24.6099 7.94 25.4899 11.9C25.7399 13.03 26.7499 13.84 27.9099 13.84C29.5199 13.84 30.6899 12.34 30.3399 10.77C28.9399 4.61 23.4199 0 16.8399 0C10.2599 0 4.73991 4.61 3.33991 10.77C2.97991 12.34 4.15991 13.84 5.76991 13.84Z" fill="black"/>
<path d="M35.4799 13.84C36.6399 13.84 37.6499 13.03 37.8999 11.9C38.7899 7.94 42.3299 4.97 46.5499 4.97C50.7699 4.97 54.3199 7.94 55.1999 11.9C55.4499 13.03 56.4599 13.84 57.6199 13.84C59.2299 13.84 60.3999 12.34 60.0499 10.77C58.6499 4.61 53.1299 0 46.5499 0C39.9699 0 34.4499 4.61 33.0499 10.77C32.6899 12.34 33.8699 13.84 35.4799 13.84Z" fill="black"/>
<path d="M46.55 18.23C40.05 18.23 34.52 24.78 31.7 34.62C28.88 24.78 23.35 18.23 16.85 18.23C7.40001 18.23 0 32.07 0 49.73C0 67.39 7.40001 81.23 16.85 81.23C23.35 81.23 28.88 74.68 31.7 64.84C34.52 74.68 40.05 81.23 46.55 81.23C56 81.23 63.4 67.39 63.4 49.73C63.4 32.07 56 18.23 46.55 18.23ZM16.85 77.23C9.88001 77.23 4 64.63 4 49.73C4 34.83 9.89001 22.23 16.85 22.23C17.85 22.23 18.82 22.5 19.76 22.98C15.39 25.02 12.12 33.15 12.12 42.87C12.12 54.14 16.5 63.27 21.91 63.27C24.88 63.27 27.53 60.51 29.32 56.17C27.92 68.09 22.78 77.23 16.84 77.23H16.85ZM46.55 77.23C39.58 77.23 33.7 64.63 33.7 49.73C33.7 34.83 39.59 22.23 46.55 22.23C47.55 22.23 48.52 22.5 49.46 22.98C45.09 25.02 41.82 33.15 41.82 42.87C41.82 54.14 46.2 63.27 51.61 63.27C54.58 63.27 57.23 60.51 59.02 56.16C57.62 68.08 52.48 77.22 46.54 77.22L46.55 77.23Z" fill="black"/>
</svg>
