<svg width="40" height="26" viewBox="0 0 40 26" fill="none" xmlns="http://www.w3.org/2000/svg">
<g clip-path="url(#clip0_2009_7)">
<path d="M39.9999 9.79173C39.9999 9.83541 39.9998 9.8791 39.9973 9.92535C39.9279 11.3875 38.6996 12.5336 37.1963 12.5336H24.9054C25.2909 13.009 25.5221 13.6129 25.5221 14.2681C25.5221 15.4014 24.8771 16.4421 23.9469 16.9227C24.5097 17.5548 24.872 18.4336 24.872 19.2354C24.872 20.5408 24.1628 21.6997 23.1375 22.1417C23.2968 22.5118 23.3841 22.8895 23.3841 23.221C23.3841 24.732 22.1558 25.9603 20.6448 25.9603H18.3629C18.2884 25.9603 18.2165 25.9552 18.1445 25.95C15.4155 25.9089 11.913 25.6905 8.87561 24.3619L2.25605 25.2536C2.03249 25.2845 1.81406 25.1637 1.72155 24.9581C-0.550066 20.0191 -0.573193 14.3452 1.65731 9.38571L1.72155 9.24695C1.8192 9.03366 2.0479 8.91032 2.27918 8.95143L7.17189 9.80457L8.46445 8.20108C10.0088 6.28665 12.0235 4.76796 14.2925 3.81203L22.6518 0.283827C23.4792 -0.0656528 24.3761 -0.039957 25.1187 0.350637C25.8459 0.733522 26.3393 1.4145 26.5115 2.26507C26.7505 3.45484 26.2057 4.64975 25.1547 5.24335L22.2843 7.05242H37.2657C38.0212 7.05242 38.7253 7.35308 39.2469 7.90042C39.7377 8.41437 40.005 9.08249 40.005 9.78916L39.9999 9.79173ZM22.7546 11.5057H37.1989C38.1342 11.5057 38.9309 10.7759 38.972 9.87653C38.9925 9.39599 38.8255 8.954 38.5017 8.61223C38.1754 8.27046 37.7359 8.08287 37.2631 8.08287H20.5678C20.3391 8.08287 20.1206 7.91841 20.0564 7.69999C19.9896 7.47385 20.0821 7.22716 20.2799 7.10125L24.615 4.36965C24.615 4.36965 24.6305 4.35938 24.6382 4.3568C25.3063 3.9842 25.6558 3.2287 25.5016 2.47321C25.3937 1.93101 25.0853 1.50187 24.6356 1.26545C24.1679 1.01876 23.5897 1.00848 23.0501 1.23719L14.6908 4.76539C12.5811 5.65707 10.7027 7.07041 9.26363 8.85378L7.78091 10.6937C7.66271 10.8402 7.47769 10.9095 7.29267 10.8761L2.49503 10.0384C0.536919 14.556 0.542058 19.6774 2.50017 24.1898L8.88332 23.3315C8.97839 23.3186 9.07604 23.3315 9.16341 23.3726C12.0672 24.6806 15.5054 24.8913 18.1805 24.9298C18.1933 24.9298 18.2062 24.9298 18.2165 24.9298C18.2653 24.935 18.3141 24.9376 18.3655 24.9376H20.6474C21.5905 24.9376 22.3588 24.1692 22.3588 23.2261C22.3588 22.9692 22.2535 22.6274 22.0762 22.3139C21.9657 22.1212 21.9528 21.8899 22.0428 21.6869C22.1301 21.4813 22.3152 21.3271 22.5336 21.2732C23.2814 21.0881 23.8467 20.2144 23.8467 19.2431C23.8467 18.5493 23.433 17.7424 22.8625 17.321C22.6544 17.1668 22.5567 16.9047 22.6081 16.6503C22.6621 16.401 22.8574 16.2031 23.1092 16.1517C23.8878 15.9847 24.4968 15.1624 24.4968 14.2784C24.4968 13.3379 23.7002 12.5439 22.7571 12.5439C22.4745 12.5439 22.2432 12.3126 22.2432 12.0299C22.2432 11.7473 22.4745 11.516 22.7571 11.516L22.7546 11.5057Z" fill="black"/>
</g>
<defs>
<clipPath id="clip0_2009_7">
<rect width="25.9206" height="40" fill="white" transform="matrix(0 -1 1 0 0 25.9603)"/>
</clipPath>
</defs>
</svg>
