<svg width="221" height="234" viewBox="0 0 221 234" fill="none" xmlns="http://www.w3.org/2000/svg">
<path d="M50.74 97.46H46.74C46.74 94.64 46.74 91.98 46.72 89.48C46.71 84.89 46.69 80.8 46.74 77.16C46.59 65.26 45.81 58.58 42.35 55.12C38.89 51.66 32.21 50.87 20.3 50.73C16.65 50.78 12.57 50.76 7.98004 50.75C5.48004 50.75 2.82 50.73 0 50.73V46.73C2.82 46.73 5.48004 46.73 7.98004 46.71C12.56 46.7 16.6501 46.68 20.3101 46.73C32.2201 46.58 38.9 45.8 42.36 42.34C45.82 38.88 46.61 32.2 46.75 20.3C46.7 16.65 46.72 12.56 46.73 7.97998C46.73 5.47998 46.75 2.82 46.75 0H50.75C50.75 2.82 50.75 5.47998 50.77 7.97998C50.78 12.57 50.8 16.66 50.75 20.31C50.9 32.21 51.68 38.89 55.14 42.35C58.6 45.81 65.2801 46.6 77.1901 46.74C80.8401 46.69 84.93 46.71 89.51 46.72C92.01 46.72 94.67 46.74 97.49 46.74V50.74C94.67 50.74 92.01 50.74 89.51 50.76C84.92 50.77 80.8301 50.79 77.1901 50.74C65.2801 50.89 58.6 51.67 55.14 55.13C51.68 58.59 50.89 65.27 50.75 77.17C50.8 80.82 50.78 84.91 50.77 89.5C50.77 92 50.75 94.66 50.75 97.48L50.74 97.46ZM39.1201 48.72C41.6101 49.54 43.5901 50.69 45.1801 52.28C46.7801 53.88 47.92 55.86 48.74 58.34C49.56 55.85 50.71 53.87 52.3 52.28C53.9 50.68 55.88 49.54 58.36 48.72C55.87 47.9 53.9 46.75 52.3 45.16C50.7001 43.56 49.56 41.58 48.74 39.1C47.92 41.59 46.7701 43.56 45.1801 45.16C43.5801 46.76 41.6001 47.9 39.1201 48.72Z" fill="black"/>
<path d="M109.74 169.46H105.74C105.74 166.64 105.74 163.98 105.72 161.48C105.71 156.89 105.69 152.8 105.74 149.16C105.59 137.26 104.81 130.58 101.35 127.12C97.89 123.66 91.21 122.87 79.3 122.73C75.65 122.78 71.57 122.76 66.98 122.75C64.48 122.75 61.82 122.73 59 122.73V118.73C61.82 118.73 64.48 118.73 66.98 118.71C71.56 118.7 75.6501 118.68 79.3101 118.73C91.2201 118.58 97.9 117.8 101.36 114.34C104.82 110.88 105.61 104.2 105.75 92.3C105.7 88.65 105.72 84.56 105.73 79.98C105.73 77.48 105.75 74.82 105.75 72H109.75C109.75 74.82 109.75 77.48 109.77 79.98C109.78 84.57 109.8 88.66 109.75 92.31C109.9 104.21 110.68 110.89 114.14 114.35C117.6 117.81 124.28 118.6 136.19 118.74C139.84 118.69 143.93 118.71 148.51 118.72C151.01 118.72 153.67 118.74 156.49 118.74V122.74C153.67 122.74 151.01 122.74 148.51 122.76C143.92 122.77 139.83 122.79 136.19 122.74C124.28 122.89 117.6 123.67 114.14 127.13C110.68 130.59 109.89 137.27 109.75 149.17C109.8 152.82 109.78 156.91 109.77 161.5C109.77 164 109.75 166.66 109.75 169.48L109.74 169.46ZM98.1201 120.72C100.61 121.54 102.59 122.69 104.18 124.28C105.78 125.88 106.92 127.86 107.74 130.34C108.56 127.85 109.71 125.87 111.3 124.28C112.9 122.68 114.88 121.54 117.36 120.72C114.87 119.9 112.9 118.75 111.3 117.16C109.7 115.56 108.56 113.58 107.74 111.1C106.92 113.59 105.77 115.56 104.18 117.16C102.58 118.76 100.6 119.9 98.1201 120.72Z" fill="black"/>
<path d="M173.74 233.46H169.74C169.74 230.64 169.74 227.98 169.72 225.48C169.71 220.89 169.69 216.8 169.74 213.16C169.59 201.26 168.81 194.58 165.35 191.12C161.89 187.66 155.21 186.87 143.3 186.73C139.65 186.78 135.57 186.76 130.98 186.75C128.48 186.75 125.82 186.73 123 186.73V182.73C125.82 182.73 128.48 182.73 130.98 182.71C135.56 182.7 139.65 182.68 143.31 182.73C155.22 182.58 161.9 181.8 165.36 178.34C168.82 174.88 169.61 168.2 169.75 156.3C169.7 152.65 169.72 148.56 169.73 143.98C169.73 141.48 169.75 138.82 169.75 136H173.75C173.75 138.82 173.75 141.48 173.77 143.98C173.78 148.57 173.8 152.66 173.75 156.31C173.9 168.21 174.68 174.89 178.14 178.35C181.6 181.81 188.28 182.6 200.19 182.74C203.84 182.69 207.93 182.71 212.51 182.72C215.01 182.72 217.67 182.74 220.49 182.74V186.74C217.67 186.74 215.01 186.74 212.51 186.76C207.92 186.77 203.83 186.79 200.19 186.74C188.28 186.89 181.6 187.67 178.14 191.13C174.68 194.59 173.89 201.27 173.75 213.17C173.8 216.82 173.78 220.91 173.77 225.5C173.77 228 173.75 230.66 173.75 233.48L173.74 233.46ZM162.12 184.72C164.61 185.54 166.59 186.69 168.18 188.28C169.78 189.88 170.92 191.86 171.74 194.34C172.56 191.85 173.71 189.87 175.3 188.28C176.9 186.68 178.88 185.54 181.36 184.72C178.87 183.9 176.9 182.75 175.3 181.16C173.7 179.56 172.56 177.58 171.74 175.1C170.92 177.59 169.77 179.56 168.18 181.16C166.58 182.76 164.6 183.9 162.12 184.72Z" fill="black"/>
</svg>
