<svg width="97" height="154" viewBox="0 0 97 154" fill="none" xmlns="http://www.w3.org/2000/svg">
<g clip-path="url(#clip0_1_5783)">
<path d="M96.2902 14.25C96.9902 11.14 96.4102 7.97004 94.6402 5.32004C92.8802 2.67004 90.1802 0.900037 87.0302 0.350037C80.9502 -0.719963 75.1102 3.27004 73.7202 9.43004L62.8002 57.77C62.7802 57.87 62.6902 57.94 62.5902 57.95C62.4802 57.95 62.3702 57.88 62.3502 57.78L50.2002 9.32004C48.6602 3.19004 42.7302 -0.659963 36.6802 0.550037C33.5502 1.18004 30.8902 3.01004 29.1902 5.70004C27.4902 8.39004 26.9802 11.58 27.7402 14.62L35.9902 50.86C34.0802 49.84 31.8702 49.34 29.5502 49.55C24.2402 50.03 20.1002 54.06 19.2302 59.08C17.1802 57.23 14.4802 56.09 11.5102 56.09C5.15021 56.09 -0.0297852 61.26 -0.0297852 67.63V77.41C-0.0297852 77.41 -0.0297852 77.46 -0.0297852 77.49L1.20021 107.87C1.20021 120.42 6.17021 132.15 15.1802 140.88C23.8302 149.26 35.1302 153.83 47.1402 153.83C47.6402 153.83 48.1402 153.83 48.6402 153.81C71.8402 153.08 90.8402 135.14 92.9302 112.05C95.6902 103.64 95.1302 96.43 91.3402 90.75L88.3602 62.22C87.7402 56.28 88.0902 50.32 89.4102 44.49L96.2402 14.25H96.2902ZM29.9302 53.54C34.0702 53.16 37.7402 56.23 38.1102 60.37L39.5502 76.28C34.7302 76.84 30.8102 80.38 29.6802 85.02C26.3602 84.52 24.8602 81.27 24.5802 78.09L23.1002 61.72C22.7302 57.58 25.7902 53.91 29.9302 53.54ZM11.5402 60.1C15.7002 60.1 19.0802 63.48 19.0802 67.64V77.42C19.0802 81.58 15.7002 84.96 11.5402 84.96C7.38021 84.96 4.08022 81.65 4.01022 77.55V77.39V67.65C4.01022 63.49 7.39021 60.11 11.5502 60.11L11.5402 60.1ZM89.1002 111.01L89.0202 111.24L89.0002 111.48C87.2002 132.67 69.8102 149.15 48.5502 149.82C37.0902 150.2 26.2202 145.99 17.9902 138.02C9.76022 130.04 5.22021 119.34 5.22021 107.8L4.36022 86.44C6.33022 88.01 8.82021 88.95 11.5302 88.95C15.9002 88.95 19.7102 86.51 21.6602 82.92C23.1302 86.4 25.9002 88.62 29.4102 89.02C30.0502 94.78 34.9402 99.27 40.8702 99.27H50.1902C53.0102 99.27 55.7102 100.32 57.7902 102.24C60.0802 104.36 61.4002 107.36 61.4002 110.48V110.61H65.4002V110.48C65.4002 106.25 63.6202 102.18 60.5102 99.31C57.6902 96.71 54.0302 95.28 50.2002 95.28H40.8802C36.7202 95.28 33.3402 91.9 33.3402 87.74C33.3402 83.58 36.7202 80.2 40.8802 80.2H61.3302C67.3002 80.2 73.9202 82.22 79.5102 85.73L82.0702 87.34C90.3802 92.57 92.6802 100.31 89.1002 111.01ZM84.4302 62.63L86.8502 85.86C86.0302 85.19 85.1602 84.55 84.2002 83.95L81.6402 82.34C75.4302 78.43 68.0302 76.19 61.3302 76.19H43.5502L42.0902 60C42.0302 59.34 41.9002 58.7 41.7402 58.07L31.6402 13.69C31.1302 11.67 31.4702 9.59004 32.5802 7.83004C33.6902 6.07004 35.4302 4.88004 37.4802 4.47004C41.3602 3.68004 45.3302 6.30004 46.3302 10.29L58.4802 58.75C58.9802 60.76 60.8702 62.09 62.9102 61.94C64.7702 61.8 66.3002 60.48 66.7102 58.65L77.6302 10.31C78.5402 6.30004 82.4502 3.60004 86.3402 4.29004C88.4002 4.65004 90.1602 5.81004 91.3102 7.54004C92.4602 9.27004 92.8402 11.34 92.3902 13.37L85.5602 43.61C84.1502 49.86 83.7702 56.26 84.4302 62.63Z" fill="black"/>
</g>
<defs>
<clipPath id="clip0_1_5783">
<rect width="96.58" height="153.66" fill="white" transform="translate(0 0.170044)"/>
</clipPath>
</defs>
</svg>
