<svg width="757" height="49" viewBox="0 0 757 49" fill="none" xmlns="http://www.w3.org/2000/svg">
<path d="M14.31 1.04004H24.18V30.84C24.18 35.02 23.46 38.43 22.02 41.07C20.58 43.71 18.58 45.64 16.01 46.89C13.44 48.13 10.43 48.75 6.99 48.75C4.42 48.75 2.09 48.42 0 47.77V39.28C0.87 39.67 1.77 39.98 2.71 40.19C3.65 40.41 4.66 40.52 5.75 40.52C8.32 40.52 10.39 39.83 11.96 38.46C13.53 37.09 14.31 34.68 14.31 31.24V1.04004Z" fill="black"/>
<path d="M47.8699 1.04004H55.9699L77.2099 47.69H66.9499L62.5699 37.56H40.8799L36.4999 47.69H26.6299L47.8699 1.04004ZM59.2399 29.85L51.7899 12.47L44.2099 29.85H59.2399Z" fill="black"/>
<path d="M163.17 36.7099C161.17 40.2799 158.21 43.0699 154.32 45.0699C150.42 47.0699 145.6 48.0699 139.85 48.0699H105.02C100.93 48.0699 97.1898 47.4699 93.8098 46.2699C90.4298 45.0699 87.5398 43.3899 85.1198 41.2399C82.6998 39.0799 80.8398 36.5699 79.5298 33.6899C78.2198 30.8099 77.5698 27.6999 77.5698 24.3499C77.5698 20.9999 78.2198 17.8799 79.5298 15.0099C80.8398 12.1399 82.6998 9.61988 85.1198 7.45988C87.5398 5.29988 90.4298 3.62988 93.8098 2.42988C97.1898 1.22988 100.92 0.629883 105.02 0.629883H140.17C145.4 0.629883 149.79 1.31988 153.34 2.68988C156.89 4.05988 159.99 6.26988 162.65 9.31988L154.87 16.3799C153.65 14.4199 151.91 12.8399 149.64 11.6399C147.37 10.4399 144.41 9.83988 140.75 9.83988H105.4C101.96 9.83988 98.9998 10.4699 96.5098 11.7299C94.0298 12.9899 92.1198 14.7099 90.7898 16.8899C89.4598 19.0699 88.7998 21.5499 88.7998 24.3399C88.7998 27.1299 89.4598 29.6099 90.7898 31.7899C92.1198 33.9699 94.0198 35.6899 96.5098 36.9499C98.9898 38.2099 101.95 38.8399 105.4 38.8399H140.03C144.34 38.8399 147.78 38.0499 150.35 36.4599C152.92 34.8699 154.62 32.6199 155.45 29.6999H102V21.5999H166.17V24.2799C166.17 28.9799 165.17 33.1199 163.16 36.6899L163.17 36.7099Z" fill="black"/>
<path d="M205.06 1.04004H214.8V27.05C214.8 31.88 213.93 35.91 212.19 39.14C210.45 42.37 208 44.77 204.84 46.36C201.68 47.95 198.01 48.75 193.83 48.75C189.65 48.75 185.98 47.95 182.82 46.36C179.66 44.77 177.19 42.36 175.4 39.14C173.61 35.92 172.72 31.89 172.72 27.05V1.04004H182.59V27.05C182.59 30.1 183.09 32.59 184.09 34.53C185.09 36.47 186.44 37.9 188.14 38.81C189.84 39.73 191.73 40.18 193.82 40.18C195.91 40.18 197.74 39.72 199.44 38.81C201.14 37.9 202.5 36.47 203.52 34.53C204.54 32.59 205.06 30.1 205.06 27.05V1.04004Z" fill="black"/>
<path d="M250.64 1.04004H267.69L303.04 47.69H289.78L282.2 37.37H235.68L228.04 47.69H215.3L250.64 1.04004ZM276.13 29.07L261.89 9.73004H256.14L241.83 29.07H276.13Z" fill="black"/>
<path d="M308.17 1.04004H325.42C328.9 1.04004 331.93 1.64004 334.5 2.84004C337.07 4.04004 339.06 5.72004 340.48 7.87004C341.9 10.03 342.6 12.54 342.6 15.42C342.6 18.77 341.53 21.61 339.4 23.91C337.27 26.22 334.3 27.7 330.51 28.35L347.76 47.69H335.21L319.2 28.74H318.02V47.69H308.15V1.04004H308.17ZM318.04 22.08H324.31C326.7 22.08 328.62 21.46 330.06 20.22C331.5 18.98 332.22 17.36 332.22 15.35C332.22 13.34 331.5 11.67 330.06 10.45C328.62 9.23004 326.7 8.62004 324.31 8.62004H318.04V22.08Z" fill="black"/>
<path d="M386.06 33.4504C388.37 37.2404 392.33 39.1304 397.95 39.1304H440.03C442.42 39.1304 444.24 38.6004 445.49 37.5304C446.73 36.4604 447.35 35.1004 447.35 33.4504C447.35 29.7004 444.85 27.8304 439.84 27.8304H397.3C394.03 27.8304 391.17 27.2704 388.71 26.1604C386.25 25.0504 384.34 23.4704 382.99 21.4204C381.64 19.3704 380.96 16.9804 380.96 14.2304C380.96 11.4804 381.62 9.29039 382.95 7.24039C384.28 5.19039 386.24 3.58039 388.83 2.41039C391.42 1.23039 394.57 0.650391 398.27 0.650391H439.96C443.71 0.650391 446.93 1.19039 449.63 2.28039C452.33 3.37039 454.79 5.13039 457.01 7.57039L450.08 13.9704C449.12 12.4504 447.79 11.2704 446.09 10.4404C444.39 9.61039 442.13 9.20039 439.3 9.20039H398.2C395.98 9.20039 394.3 9.67039 393.17 10.6004C392.04 11.5404 391.47 12.7504 391.47 14.2304C391.47 17.5804 393.82 19.2604 398.53 19.2604H441.26C444.66 19.2604 447.61 19.8604 450.11 21.0604C452.61 22.2604 454.55 23.9204 455.93 26.0604C457.3 28.1904 457.99 30.7204 457.99 33.6404C457.99 36.5604 457.29 38.9104 455.9 41.0904C454.51 43.2704 452.46 44.9804 449.76 46.2204C447.06 47.4604 443.77 48.0804 439.89 48.0804H398.01C393.52 48.0804 389.74 47.4704 386.67 46.2504C383.6 45.0304 380.89 43.0704 378.53 40.3704L386.04 33.4404L386.06 33.4504Z" fill="black"/>
<path d="M507.37 47.69H496.72V9.86004H461.7V1.04004H542.27V9.86004H507.38V47.69H507.37Z" fill="black"/>
<path d="M579.39 1.04004H589.13V27.05C589.13 31.88 588.26 35.91 586.52 39.14C584.78 42.37 582.33 44.77 579.17 46.36C576.01 47.95 572.34 48.75 568.16 48.75C563.98 48.75 560.31 47.95 557.15 46.36C553.99 44.77 551.52 42.36 549.73 39.14C547.94 35.92 547.05 31.89 547.05 27.05V1.04004H556.92V27.05C556.92 30.1 557.42 32.59 558.42 34.53C559.42 36.47 560.77 37.9 562.47 38.81C564.17 39.73 566.06 40.18 568.15 40.18C570.24 40.18 572.07 39.72 573.77 38.81C575.47 37.9 576.83 36.47 577.85 34.53C578.87 32.59 579.39 30.1 579.39 27.05V1.04004Z" fill="black"/>
<path d="M598.53 1.04004H653.48C657.84 1.04004 661.76 1.64004 665.24 2.84004C668.72 4.04004 671.69 5.69004 674.13 7.81004C676.57 9.92004 678.44 12.39 679.75 15.23C681.06 18.06 681.71 21.11 681.71 24.38C681.71 27.65 681.06 30.7 679.75 33.53C678.44 36.36 676.57 38.83 674.13 40.95C671.69 43.06 668.73 44.72 665.24 45.92C661.75 47.12 657.83 47.72 653.48 47.72H598.53V1.04004ZM653.15 38.67C656.94 38.67 660.14 38.06 662.76 36.84C665.37 35.62 667.35 33.93 668.71 31.78C670.06 29.62 670.74 27.15 670.74 24.36C670.74 21.57 670.06 19.05 668.71 16.91C667.36 14.78 665.38 13.1 662.76 11.88C660.15 10.66 656.94 10.05 653.15 10.05H609.24V38.67H653.15Z" fill="black"/>
<path d="M699.22 47.69H689.35V1.04004H699.22V47.69Z" fill="black"/>
<path d="M708.16 14.76C709.45 11.8 711.24 9.22 713.55 7.02C715.86 4.82 718.55 3.1 721.62 1.86C724.69 0.62 728.01 0 731.58 0C735.15 0 738.54 0.62 741.61 1.86C744.68 3.1 747.37 4.82 749.68 7.02C751.99 9.22 753.79 11.8 755.07 14.76C756.35 17.72 757 20.92 757 24.37C757 27.82 756.36 31.01 755.07 33.97C753.78 36.93 751.99 39.51 749.68 41.71C747.37 43.91 744.68 45.63 741.61 46.87C738.54 48.11 735.19 48.73 731.58 48.73C727.97 48.73 724.69 48.11 721.62 46.87C718.55 45.63 715.86 43.91 713.55 41.71C711.24 39.51 709.44 36.93 708.16 33.97C706.87 31.01 706.23 27.81 706.23 24.37C706.23 20.93 706.87 17.73 708.16 14.76ZM718.45 32.47C719.8 34.82 721.62 36.66 723.91 37.99C726.2 39.32 728.76 39.98 731.59 39.98C734.42 39.98 737.05 39.32 739.33 37.99C741.62 36.66 743.44 34.82 744.79 32.47C746.14 30.12 746.82 27.42 746.82 24.37C746.82 21.32 746.14 18.62 744.79 16.27C743.44 13.92 741.62 12.08 739.33 10.75C737.04 9.42 734.46 8.76 731.59 8.76C728.72 8.76 726.2 9.43 723.91 10.75C721.62 12.08 719.8 13.92 718.45 16.27C717.1 18.62 716.42 21.32 716.42 24.37C716.42 27.42 717.09 30.12 718.45 32.47Z" fill="black"/>
</svg>
