<svg width="443" height="30" viewBox="0 0 443 30" fill="none" xmlns="http://www.w3.org/2000/svg">
<path d="M8.74529 0.638672H14.7738V18.8299C14.7738 21.3833 14.335 23.4637 13.455 25.0736C12.5775 26.6834 11.353 27.8648 9.78143 28.6227C8.20986 29.3805 6.37305 29.7594 4.27101 29.7594C2.69944 29.7594 1.27659 29.5588 0 29.1601V23.9739C0.532947 24.2142 1.08325 24.3999 1.65585 24.5312C2.22846 24.6649 2.84569 24.7318 3.51249 24.7318C5.08159 24.7318 6.34827 24.3132 7.30509 23.4761C8.26439 22.639 8.74281 21.1703 8.74281 19.0676V0.638672H8.74529Z" fill="black"/>
<path d="M29.1607 0.638672H34.1109L47.0875 29.1205H40.8186L38.1439 22.9387H24.8897L22.215 29.1205H16.1865L29.1632 0.638672H29.1607ZM36.1088 18.228L31.5577 7.61793L26.9273 18.228H36.1088Z" fill="black"/>
<path d="M99.5224 22.4195C98.2978 24.6014 96.4932 26.3029 94.1136 27.5264C91.7314 28.7499 88.7841 29.3616 85.2691 29.3616H63.9884C61.4873 29.3616 59.2043 28.9951 57.1419 28.2645C55.0795 27.5339 53.3097 26.5085 51.8323 25.1934C50.3549 23.8783 49.2171 22.3403 48.4189 20.5868C47.6208 18.8308 47.2217 16.9312 47.2217 14.883C47.2217 12.8348 47.6208 10.9327 48.4189 9.17918C49.2171 7.42321 50.3549 5.88768 51.8323 4.57256C53.3097 3.25497 55.0795 2.2321 57.1419 1.50148C59.2043 0.770858 61.4873 0.404297 63.9884 0.404297H85.4674C88.6626 0.404297 91.3422 0.822872 93.5112 1.65999C95.6802 2.49711 97.5765 3.84689 99.2001 5.70935L94.4482 10.0188C93.7021 8.82254 92.6387 7.8591 91.2555 7.126C89.8723 6.39538 88.0628 6.02885 85.8269 6.02885H64.2264C62.1244 6.02885 60.3123 6.41519 58.7953 7.18544C57.2783 7.95816 56.1132 9.0083 55.3026 10.3358C54.4896 11.6658 54.0855 13.1815 54.0855 14.883C54.0855 16.5845 54.4921 18.1002 55.3026 19.4302C56.1132 20.7601 57.2783 21.8102 58.7953 22.5805C60.3123 23.3532 62.1219 23.7371 64.2264 23.7371H85.3856C88.0206 23.7371 90.1227 23.2517 91.6942 22.2808C93.2633 21.31 94.302 19.9329 94.8076 18.1522H62.1491V13.2063H101.357V14.8409C101.357 17.7138 100.744 20.24 99.5199 22.4195H99.5224Z" fill="black"/>
<path d="M125.046 0.638672H130.996V16.5142C130.996 19.4664 130.463 21.9257 129.399 23.8947C128.333 25.8636 126.836 27.3323 124.908 28.3032C122.977 29.274 120.736 29.7594 118.18 29.7594C115.624 29.7594 113.381 29.274 111.452 28.3032C109.521 27.3323 108.012 25.8636 106.921 23.8947C105.83 21.9282 105.285 19.4664 105.285 16.5142V0.638672H111.314V16.5142C111.314 18.3766 111.619 19.8998 112.231 21.0812C112.843 22.265 113.669 23.1343 114.707 23.6941C115.746 24.2538 116.903 24.5312 118.18 24.5312C119.457 24.5312 120.575 24.2513 121.613 23.6941C122.652 23.1368 123.482 22.265 124.109 21.0812C124.734 19.8973 125.049 18.3766 125.049 16.5142V0.638672H125.046Z" fill="black"/>
<path d="M152.802 0.638672H163.223L184.824 29.1205H176.718L172.087 22.8173H143.66L138.99 29.1205H131.204L152.805 0.638672H152.802ZM168.372 17.75L159.668 5.94373H156.156L147.413 17.75H168.374H168.372Z" fill="black"/>
<path d="M187.875 0.639198H198.415C200.544 0.639198 202.393 1.00573 203.965 1.73635C205.534 2.46697 206.754 3.49232 207.619 4.80744C208.484 6.12503 208.915 7.66056 208.915 9.41405C208.915 11.4623 208.263 13.191 206.959 14.6002C205.656 16.0095 203.846 16.9134 201.531 17.3122L212.071 29.1185H204.406L194.625 17.55H193.906V29.1185H187.877V0.636719L187.875 0.639198ZM193.903 13.4832H197.736C199.198 13.4832 200.371 13.1043 201.248 12.3465C202.126 11.5886 202.567 10.5979 202.567 9.37444C202.567 8.15097 202.128 7.12808 201.248 6.3826C200.371 5.6396 199.198 5.26561 197.736 5.26561H193.903V13.4832Z" fill="black"/>
<path d="M259.007 25.2497C258.023 26.6862 256.685 27.7957 254.994 28.5808C253.303 29.3659 251.395 29.7573 249.265 29.7573C246.923 29.7573 244.766 29.3238 242.798 28.462C240.828 27.5976 239.192 26.3419 237.888 24.6925L242.198 20.7422C242.89 21.9384 243.829 22.8969 245.014 23.6151C246.199 24.3334 247.563 24.6925 249.107 24.6925C250.651 24.6925 251.923 24.3408 252.919 23.6349C253.918 22.9315 254.416 21.9929 254.416 20.8239C254.416 19.9472 254.238 19.2809 253.879 18.8302C253.519 18.3794 253.093 18.0525 252.602 17.8519C252.109 17.6537 251.663 17.5274 251.263 17.4729C250.678 17.3392 250.046 17.2278 249.367 17.1336C248.688 17.0395 248.016 16.9405 247.352 16.834C247.087 16.8067 246.645 16.72 246.036 16.5739C245.423 16.4278 244.744 16.1875 244 15.8557C243.254 15.5238 242.531 15.0656 241.824 14.4786C241.118 13.8942 240.54 13.1412 240.086 12.2249C239.633 11.3085 239.407 10.1841 239.407 8.85412C239.407 7.1254 239.861 5.59729 240.766 4.26731C241.67 2.93733 242.907 1.89465 244.479 1.13679C246.048 0.378923 247.833 0 249.828 0C251.93 0 253.854 0.406153 255.596 1.21603C257.339 2.02838 258.784 3.13795 259.929 4.54718L255.896 8.2176C255.311 7.1551 254.491 6.33037 253.44 5.7434C252.389 5.15891 251.236 4.86665 249.987 4.86665C248.628 4.86665 247.525 5.19359 246.673 5.84495C245.82 6.49632 245.396 7.35325 245.396 8.41822C245.396 9.13646 245.575 9.69369 245.934 10.0949C246.293 10.4937 246.725 10.781 247.233 10.9519C247.739 11.1252 248.177 11.2515 248.549 11.3308C249.134 11.4101 249.786 11.5041 250.505 11.6106C251.224 11.7171 251.876 11.8236 252.461 11.9301C252.701 11.9846 253.125 12.0763 253.737 12.21C254.35 12.3437 255.034 12.5815 255.792 12.9282C256.551 13.275 257.289 13.753 258.008 14.3647C258.727 14.9765 259.32 15.7616 259.786 16.7176C260.252 17.676 260.485 18.8574 260.485 20.2666C260.485 22.1539 259.991 23.8157 259.007 25.2522V25.2497Z" fill="black"/>
<path d="M290.6 29.1205H284.093V6.02297H262.693V0.638672H311.92V6.02297H290.6V29.1205Z" fill="black"/>
<path d="M334.537 0.638672H340.486V16.5142C340.486 19.4664 339.953 21.9257 338.89 23.8947C337.824 25.8636 336.327 27.3323 334.398 28.3032C332.467 29.274 330.226 29.7594 327.671 29.7594C325.115 29.7594 322.872 29.274 320.943 28.3032C319.012 27.3323 317.503 25.8636 316.412 23.8947C315.321 21.9282 314.776 19.4664 314.776 16.5142V0.638672H320.804V16.5142C320.804 18.3766 321.109 19.8998 321.722 21.0812C322.334 22.265 323.159 23.1343 324.198 23.6941C325.236 24.2538 326.394 24.5312 327.671 24.5312C328.947 24.5312 330.065 24.2513 331.104 23.6941C332.143 23.1368 332.973 22.265 333.6 21.0812C334.225 19.8973 334.54 18.3766 334.54 16.5142V0.638672H334.537Z" fill="black"/>
<path d="M346.163 0.638672H379.741C382.403 0.638672 384.798 1.0052 386.927 1.73582C389.056 2.46644 390.866 3.47696 392.358 4.7673C393.848 6.05765 394.993 7.56593 395.791 9.29465C396.589 11.0234 396.988 12.8858 396.988 14.8796C396.988 16.8733 396.589 18.7357 395.791 20.4645C394.993 22.1932 393.848 23.7015 392.358 24.9918C390.866 26.2822 389.056 27.2927 386.927 28.0233C384.798 28.7564 382.401 29.1205 379.741 29.1205H346.163V0.638672ZM379.54 23.6148C381.855 23.6148 383.811 23.2433 385.41 22.4978C387.006 21.7548 388.218 20.7221 389.044 19.4069C389.869 18.0893 390.281 16.581 390.281 14.8796C390.281 13.1781 389.867 11.6351 389.044 10.3324C388.218 9.02966 387.009 8.00679 385.41 7.26131C383.813 6.5183 381.858 6.14432 379.54 6.14432H352.709V23.6173H379.54V23.6148Z" fill="black"/>
<path d="M407.612 29.1205H401.584V0.638672H407.612V29.1205Z" fill="black"/>
<path d="M413.004 9.01508C413.79 7.20711 414.886 5.63195 416.298 4.28711C417.709 2.94475 419.352 1.89465 421.229 1.13679C423.105 0.378923 425.135 0 427.317 0C429.498 0 431.568 0.378923 433.444 1.13679C435.321 1.89465 436.964 2.94475 438.375 4.28711C439.785 5.62947 440.883 7.20711 441.669 9.01508C442.455 10.8231 442.847 12.7796 442.847 14.8799C442.847 16.9801 442.453 18.9367 441.669 20.7446C440.883 22.5526 439.785 24.1303 438.375 25.4726C436.964 26.815 435.321 27.8651 433.444 28.623C431.568 29.3808 429.525 29.7597 427.317 29.7597C425.108 29.7597 423.105 29.3808 421.229 28.623C419.352 27.8651 417.709 26.815 416.298 25.4726C414.888 24.1303 413.79 22.5551 413.004 20.7446C412.218 18.9367 411.827 16.9826 411.827 14.8799C411.827 12.7772 412.218 10.8255 413.004 9.01508ZM419.293 19.8258C420.118 21.2623 421.229 22.3867 422.627 23.1965C424.025 24.0089 425.587 24.4126 427.317 24.4126C429.047 24.4126 430.651 24.0064 432.049 23.1965C433.447 22.3867 434.557 21.2623 435.383 19.8258C436.208 18.3893 436.62 16.7423 436.62 14.8799C436.62 13.0174 436.206 11.3704 435.383 9.93395C434.557 8.49748 433.447 7.37555 432.049 6.5632C430.651 5.75332 429.074 5.34714 427.317 5.34714C425.559 5.34714 424.022 5.75332 422.627 6.5632C421.229 7.37555 420.118 8.49748 419.293 9.93395C418.467 11.3704 418.056 13.0199 418.056 14.8799C418.056 16.7399 418.467 18.3893 419.293 19.8258Z" fill="black"/>
</svg>
