<svg width="186" height="50" viewBox="0 0 186 50" fill="none" xmlns="http://www.w3.org/2000/svg">
<path d="M25.4504 46.7708V0H17.6276V28.3854L7.45782 0H0V50C2.65978 49.5833 5.1631 49.2188 7.97934 48.9062V21.6146L16.8974 47.8125C19.8701 47.3958 22.6864 47.2396 25.4504 46.7708ZM40.8876 18.3333V7.8125H54.708V0H33.0647V46.1458L54.708 44.4271V36.9271C50.0665 37.0833 45.477 37.4479 40.8876 37.7604V26.1458C43.8082 25.9896 47.876 25.9896 51.3181 25.9896V18.1771C48.554 18.1771 43.9125 18.3333 40.8876 18.3333ZM83.8092 7.8125V0H59.7668V7.8125H67.8505V43.8542C70.406 43.75 73.0657 43.75 75.6734 43.75V7.8125H83.8092ZM96.5344 17.7604V7.8125H110.72V0H88.8158V43.3333H96.5344V25.5729H107.226V17.7604H96.5344ZM123.393 36.4583V0H115.57V43.8542C122.715 44.0104 129.703 44.4271 136.692 44.8958V37.1354C132.363 36.9271 127.878 36.5625 123.393 36.4583ZM143.315 45.4167C145.819 45.5729 148.426 45.6771 150.982 45.9896V0H143.315V45.4167ZM185.246 0H176.693L171.217 13.125L166.106 0H157.657L166.784 23.4896L156.718 46.4062C159.535 46.7708 162.299 46.9271 165.115 47.3958L170.852 34.1146L176.432 48.5938C179.405 49.0625 182.325 49.5833 185.246 50L175.337 23.8021L185.246 0Z" fill="black"/>
</svg>
