<svg width="225" height="60" viewBox="0 0 225 60" fill="none" xmlns="http://www.w3.org/2000/svg">
<path fill-rule="evenodd" clip-rule="evenodd" d="M172.835 30.3484V30.2787C172.835 25.5332 169.316 21.5901 164.376 21.5901C159.436 21.5901 155.989 25.4631 155.989 30.2091V30.2787C155.989 35.0243 159.507 38.9674 164.447 38.9674C169.387 38.9674 172.835 35.094 172.835 30.3484ZM151.405 30.3484V30.2787C151.405 23.4044 156.807 17.647 164.447 17.647C172.088 17.647 177.419 23.3347 177.419 30.2091V30.2787C177.419 37.1527 172.017 42.9101 164.376 42.9101C156.735 42.9101 151.405 37.2224 151.405 30.3484ZM89.2006 26.4055C89.2006 28.9528 87.1395 30.7671 83.8344 30.7671H79.1491C78.9298 30.7671 78.7526 30.5927 78.7526 30.3778V22.3631C78.7526 22.1482 78.9298 21.9737 79.1491 21.9737H83.8344C87.1042 21.9737 89.2006 23.4742 89.2006 26.3358V26.4055ZM77.5531 18.0657C75.8012 18.0657 74.3809 19.4602 74.3809 21.1803V42.102C74.3809 42.3173 74.5585 42.4914 74.7774 42.4914H78.356C78.5749 42.4914 78.7526 42.3173 78.7526 42.102V35.0295C78.7526 34.8146 78.9298 34.6402 79.1491 34.6402H83.6921C89.1653 34.6402 93.6433 31.779 93.6433 26.3007V26.231C93.6433 21.3111 89.9826 18.0657 84.1897 18.0657H77.5531ZM120.847 26.0914C120.847 28.5687 118.856 30.1739 115.729 30.1739H109.729C109.51 30.1739 109.332 29.9995 109.332 29.7846V22.3632C109.332 22.1483 109.51 21.9739 109.729 21.9739H115.693C118.927 21.9739 120.847 23.4047 120.847 26.0214V26.0914ZM108.133 18.0658C106.381 18.0658 104.961 19.46 104.961 21.1804V42.1022C104.961 42.3171 105.138 42.4915 105.357 42.4915H108.936C109.155 42.4915 109.332 42.3171 109.332 42.1022V34.3666C109.332 34.1517 109.51 33.9773 109.729 33.9773H114.53C114.658 33.9773 114.778 34.038 114.852 34.1404L120.803 42.3284C120.878 42.4308 120.998 42.4915 121.126 42.4915H125.301C125.624 42.4915 125.811 42.1337 125.624 41.876L119.666 33.6736C119.512 33.4622 119.616 33.171 119.867 33.0881C123.075 32.0236 125.289 29.66 125.289 25.8473V25.7772C125.289 23.6488 124.543 21.8341 123.228 20.5085C121.629 18.9729 119.176 18.0658 116.049 18.0658H108.133ZM140.409 18.0657H141.212C141.431 18.0657 141.608 18.2402 141.608 18.4551V39.3768C141.608 41.0969 140.188 42.4914 138.436 42.4914H137.634C137.415 42.4914 137.237 42.317 137.237 42.1021V21.1804C137.237 19.4603 138.657 18.0657 140.409 18.0657ZM203.476 26.0914C203.476 28.5687 201.486 30.1739 198.359 30.1739H192.358C192.139 30.1739 191.962 29.9995 191.962 29.7846V22.3632C191.962 22.1483 192.139 21.9739 192.358 21.9739H198.323C201.557 21.9739 203.476 23.4047 203.476 26.0214V26.0914ZM190.762 18.0658C189.01 18.0658 187.59 19.46 187.59 21.1804V42.1022C187.59 42.3171 187.768 42.4915 187.987 42.4915H191.565C191.784 42.4915 191.962 42.3171 191.962 42.1022V34.3666C191.962 34.1517 192.139 33.9773 192.358 33.9773H197.159C197.288 33.9773 197.408 34.038 197.482 34.1404L203.433 42.3284C203.507 42.4308 203.628 42.4915 203.756 42.4915H207.931C208.253 42.4915 208.441 42.1337 208.253 41.876L202.295 33.6736C202.142 33.4622 202.245 33.171 202.496 33.0881C205.705 32.0236 207.918 29.66 207.918 25.8473V25.7772C207.918 23.6488 207.172 21.8341 205.857 20.5085C204.258 18.9729 201.806 18.0658 198.679 18.0658H190.762ZM223.841 18.0657H223.039C221.287 18.0657 219.867 19.4603 219.867 21.1804V42.1021C219.867 42.317 220.044 42.4914 220.263 42.4914H221.066C222.817 42.4914 224.238 41.0969 224.238 39.3768V18.4551C224.238 18.2402 224.06 18.0657 223.841 18.0657Z" fill="#333333"/>
<path fill-rule="evenodd" clip-rule="evenodd" d="M36.9668 30.2694L31.1222 36.0084C30.9709 36.1569 30.7253 36.1569 30.5737 36.0084L24.729 30.2694C24.5778 30.1205 24.5778 29.8794 24.729 29.7308L30.5737 23.9919C30.7253 23.843 30.9709 23.843 31.1222 23.9919L36.9668 29.7308C37.1185 29.8794 37.1185 30.1205 36.9668 30.2694ZM38.3339 10.3661L20.5328 27.8453C19.3205 29.0353 19.3205 30.965 20.5328 32.155L27.5156 39.0111C27.6669 39.1601 27.6669 39.4012 27.5156 39.5497L21.4425 45.5134C21.2908 45.6619 21.0452 45.6619 20.8935 45.5134L5.36879 30.2694C5.21711 30.1205 5.21711 29.8794 5.36879 29.7308L20.8935 14.4869C21.0452 14.338 21.2908 14.338 21.4425 14.4869L24.4664 17.4565C24.6177 17.6055 24.8637 17.6055 25.015 17.4569L27.5249 14.9924C27.6766 14.8434 27.6766 14.6023 27.5253 14.4537L23.3624 10.3661C22.1504 9.17614 20.1856 9.17614 18.9737 10.3661L1.17211 27.8453C-0.0397932 29.0353 -0.0397932 30.965 1.17211 32.155L18.9737 49.6338C20.1856 50.8238 22.1504 50.8238 23.3624 49.6338L41.1635 32.155C42.3754 30.965 42.3754 29.0353 41.1635 27.8453L34.1807 20.9892C34.029 20.8402 34.029 20.5991 34.1807 20.4502L40.2542 14.4865C40.4055 14.338 40.651 14.338 40.8027 14.4865L56.3271 29.7308C56.4788 29.8794 56.4788 30.1205 56.3271 30.2694L40.8027 45.5134C40.651 45.6619 40.4055 45.6619 40.2542 45.5134L37.2182 42.5323C37.0665 42.3838 36.821 42.3838 36.6693 42.5323L34.1601 44.9969C34.0084 45.1454 34.0084 45.3869 34.1601 45.5355L38.3339 49.6338C39.5458 50.8238 41.5107 50.8238 42.723 49.6338L60.5238 32.155C61.7357 30.965 61.7357 29.0353 60.5238 27.8453L42.723 10.3661C41.5107 9.17614 39.5458 9.17614 38.3339 10.3661Z" fill="#333333"/>
</svg>
